<?xml version="1.0" encoding="utf-8" standalone="no"?>
<!DOCTYPE svg PUBLIC "-//W3C//DTD SVG 1.1//EN"
  "http://www.w3.org/Graphics/SVG/1.1/DTD/svg11.dtd">
<svg xmlns:xlink="http://www.w3.org/1999/xlink" width="209.7pt" height="208.44pt" viewBox="0 0 209.7 208.44" xmlns="http://www.w3.org/2000/svg" version="1.1">
 <metadata>
  <rdf:RDF xmlns:dc="http://purl.org/dc/elements/1.1/" xmlns:cc="http://creativecommons.org/ns#" xmlns:rdf="http://www.w3.org/1999/02/22-rdf-syntax-ns#">
   <cc:Work>
    <dc:type rdf:resource="http://purl.org/dc/dcmitype/StillImage"/>
    <dc:date>2024-07-26T16:03:32.139901</dc:date>
    <dc:format>image/svg+xml</dc:format>
    <dc:creator>
     <cc:Agent>
      <dc:title>Matplotlib v3.8.4, https://matplotlib.org/</dc:title>
     </cc:Agent>
    </dc:creator>
   </cc:Work>
  </rdf:RDF>
 </metadata>
 <defs>
  <style type="text/css">*{stroke-linejoin: round; stroke-linecap: butt}</style>
 </defs>
 <g id="figure_1">
  <g id="patch_1">
   <path d="M 0 208.44 
L 209.7 208.44 
L 209.7 0 
L 0 0 
z
" style="fill: #ffffff"/>
  </g>
  <g id="axes_1">
   <g id="patch_2">
    <path d="M 23.768267 81.873375 
C 15.527866 90.060612 13.080438 103.334997 16.965 118.773 
C 20.849562 134.211003 30.748958 150.552179 44.48296 164.197575 
C 58.216962 177.842971 74.66425 187.678499 90.2025 191.538 
C 105.74075 195.397501 119.101332 192.965862 127.341733 184.778625 
C 135.582134 176.591388 138.029562 163.317003 134.145 147.879 
C 130.260438 132.440997 120.361042 116.099821 106.62704 102.454425 
C 92.893038 88.809029 76.44575 78.973501 60.9075 75.114 
C 45.36925 71.254499 32.008668 73.686138 23.768267 81.873375 
z
" clip-path="url(#p8dcabcca2d)" style="fill: #0000ff; opacity: 0.3"/>
   </g>
   <g id="patch_3">
    <path d="M 23.768267 81.873375 
C 15.527866 90.060612 13.080438 103.334997 16.965 118.773 
C 20.849562 134.211003 30.748958 150.552179 44.48296 164.197575 
C 58.216962 177.842971 74.66425 187.678499 90.2025 191.538 
C 105.74075 195.397501 119.101332 192.965862 127.341733 184.778625 
C 135.582134 176.591388 138.029562 163.317003 134.145 147.879 
C 130.260438 132.440997 120.361042 116.099821 106.62704 102.454425 
C 92.893038 88.809029 76.44575 78.973501 60.9075 75.114 
C 45.36925 71.254499 32.008668 73.686138 23.768267 81.873375 
L 23.768267 81.873375 
z
" clip-path="url(#p8dcabcca2d)" style="fill: none; stroke: #000000; stroke-width: 0.42; stroke-linejoin: miter"/>
   </g>
   <g id="patch_4">
    <path d="M 49.157267 62.469375 
C 40.916866 70.656612 38.469438 83.930997 42.354 99.369 
C 46.238562 114.807003 56.137958 131.148179 69.87196 144.793575 
C 83.605962 158.438971 100.05325 168.274499 115.5915 172.134 
C 131.12975 175.993501 144.490332 173.561862 152.730733 165.374625 
C 160.971134 157.187388 163.418562 143.913003 159.534 128.475 
C 155.649438 113.036997 145.750042 96.695821 132.01604 83.050425 
C 118.282038 69.405029 101.83475 59.569501 86.2965 55.71 
C 70.75825 51.850499 57.397668 54.282138 49.157267 62.469375 
z
" clip-path="url(#p8dcabcca2d)" style="fill: #008000; opacity: 0.3"/>
   </g>
   <g id="patch_5">
    <path d="M 49.157267 62.469375 
C 40.916866 70.656612 38.469438 83.930997 42.354 99.369 
C 46.238562 114.807003 56.137958 131.148179 69.87196 144.793575 
C 83.605962 158.438971 100.05325 168.274499 115.5915 172.134 
C 131.12975 175.993501 144.490332 173.561862 152.730733 165.374625 
C 160.971134 157.187388 163.418562 143.913003 159.534 128.475 
C 155.649438 113.036997 145.750042 96.695821 132.01604 83.050425 
C 118.282038 69.405029 101.83475 59.569501 86.2965 55.71 
C 70.75825 51.850499 57.397668 54.282138 49.157267 62.469375 
L 49.157267 62.469375 
z
" clip-path="url(#p8dcabcca2d)" style="fill: none; stroke: #000000; stroke-width: 0.42; stroke-linejoin: miter"/>
   </g>
   <g id="patch_6">
    <path d="M 56.969267 165.374625 
C 65.209668 173.561862 78.57025 175.993501 94.1085 172.134 
C 109.64675 168.274499 126.094038 158.438971 139.82804 144.793575 
C 153.562042 131.148179 163.461438 114.807003 167.346 99.369 
C 171.230562 83.930997 168.783134 70.656612 160.542733 62.469375 
C 152.302332 54.282138 138.94175 51.850499 123.4035 55.71 
C 107.86525 59.569501 91.417962 69.405029 77.68396 83.050425 
C 63.949958 96.695821 54.050562 113.036997 50.166 128.475 
C 46.281438 143.913003 48.728866 157.187388 56.969267 165.374625 
z
" clip-path="url(#p8dcabcca2d)" style="fill: #ff0000; opacity: 0.3"/>
   </g>
   <g id="patch_7">
    <path d="M 56.969267 165.374625 
C 65.209668 173.561862 78.57025 175.993501 94.1085 172.134 
C 109.64675 168.274499 126.094038 158.438971 139.82804 144.793575 
C 153.562042 131.148179 163.461438 114.807003 167.346 99.369 
C 171.230562 83.930997 168.783134 70.656612 160.542733 62.469375 
C 152.302332 54.282138 138.94175 51.850499 123.4035 55.71 
C 107.86525 59.569501 91.417962 69.405029 77.68396 83.050425 
C 63.949958 96.695821 54.050562 113.036997 50.166 128.475 
C 46.281438 143.913003 48.728866 157.187388 56.969267 165.374625 
L 56.969267 165.374625 
z
" clip-path="url(#p8dcabcca2d)" style="fill: none; stroke: #000000; stroke-width: 0.42; stroke-linejoin: miter"/>
   </g>
   <g id="patch_8">
    <path d="M 82.358267 184.778625 
C 90.598668 192.965862 103.95925 195.397501 119.4975 191.538 
C 135.03575 187.678499 151.483038 177.842971 165.21704 164.197575 
C 178.951042 150.552179 188.850438 134.211003 192.735 118.773 
C 196.619562 103.334997 194.172134 90.060612 185.931733 81.873375 
C 177.691332 73.686138 164.33075 71.254499 148.7925 75.114 
C 133.25425 78.973501 116.806962 88.809029 103.07296 102.454425 
C 89.338958 116.099821 79.439562 132.440997 75.555 147.879 
C 71.670438 163.317003 74.117866 176.591388 82.358267 184.778625 
z
" clip-path="url(#p8dcabcca2d)" style="fill: #00bfbf; opacity: 0.3"/>
   </g>
   <g id="patch_9">
    <path d="M 82.358267 184.778625 
C 90.598668 192.965862 103.95925 195.397501 119.4975 191.538 
C 135.03575 187.678499 151.483038 177.842971 165.21704 164.197575 
C 178.951042 150.552179 188.850438 134.211003 192.735 118.773 
C 196.619562 103.334997 194.172134 90.060612 185.931733 81.873375 
C 177.691332 73.686138 164.33075 71.254499 148.7925 75.114 
C 133.25425 78.973501 116.806962 88.809029 103.07296 102.454425 
C 89.338958 116.099821 79.439562 132.440997 75.555 147.879 
C 71.670438 163.317003 74.117866 176.591388 82.358267 184.778625 
L 82.358267 184.778625 
z
" clip-path="url(#p8dcabcca2d)" style="fill: none; stroke: #000000; stroke-width: 0.42; stroke-linejoin: miter"/>
   </g>
   <g id="text_1">
    <!-- 20 -->
    <g transform="translate(26.18225 73.164762) scale(0.07 -0.07)">
     <defs>
      <path id="DejaVuSans-32" d="M 1228 531 
L 3431 531 
L 3431 0 
L 469 0 
L 469 531 
Q 828 903 1448 1529 
Q 2069 2156 2228 2338 
Q 2531 2678 2651 2914 
Q 2772 3150 2772 3378 
Q 2772 3750 2511 3984 
Q 2250 4219 1831 4219 
Q 1534 4219 1204 4116 
Q 875 4013 500 3803 
L 500 4441 
Q 881 4594 1212 4672 
Q 1544 4750 1819 4750 
Q 2544 4750 2975 4387 
Q 3406 4025 3406 3419 
Q 3406 3131 3298 2873 
Q 3191 2616 2906 2266 
Q 2828 2175 2409 1742 
Q 1991 1309 1228 531 
z
" transform="scale(0.015625)"/>
      <path id="DejaVuSans-30" d="M 2034 4250 
Q 1547 4250 1301 3770 
Q 1056 3291 1056 2328 
Q 1056 1369 1301 889 
Q 1547 409 2034 409 
Q 2525 409 2770 889 
Q 3016 1369 3016 2328 
Q 3016 3291 2770 3770 
Q 2525 4250 2034 4250 
z
M 2034 4750 
Q 2819 4750 3233 4129 
Q 3647 3509 3647 2328 
Q 3647 1150 3233 529 
Q 2819 -91 2034 -91 
Q 1250 -91 836 529 
Q 422 1150 422 2328 
Q 422 3509 836 4129 
Q 1250 4750 2034 4750 
z
" transform="scale(0.015625)"/>
     </defs>
     <use xlink:href="#DejaVuSans-32"/>
     <use xlink:href="#DejaVuSans-30" x="63.623047"/>
    </g>
   </g>
   <g id="text_2">
    <!-- 12 -->
    <g transform="translate(65.24225 49.879962) scale(0.07 -0.07)">
     <defs>
      <path id="DejaVuSans-31" d="M 794 531 
L 1825 531 
L 1825 4091 
L 703 3866 
L 703 4441 
L 1819 4666 
L 2450 4666 
L 2450 531 
L 3481 531 
L 3481 0 
L 794 0 
L 794 531 
z
" transform="scale(0.015625)"/>
     </defs>
     <use xlink:href="#DejaVuSans-31"/>
     <use xlink:href="#DejaVuSans-32" x="63.623047"/>
    </g>
   </g>
   <g id="text_3">
    <!-- 17 -->
    <g transform="translate(135.55025 49.879962) scale(0.07 -0.07)">
     <defs>
      <path id="DejaVuSans-37" d="M 525 4666 
L 3525 4666 
L 3525 4397 
L 1831 0 
L 1172 0 
L 2766 4134 
L 525 4134 
L 525 4666 
z
" transform="scale(0.015625)"/>
     </defs>
     <use xlink:href="#DejaVuSans-31"/>
     <use xlink:href="#DejaVuSans-37" x="63.623047"/>
    </g>
   </g>
   <g id="text_4">
    <!-- 26 -->
    <g transform="translate(174.61025 73.164762) scale(0.07 -0.07)">
     <defs>
      <path id="DejaVuSans-36" d="M 2113 2584 
Q 1688 2584 1439 2293 
Q 1191 2003 1191 1497 
Q 1191 994 1439 701 
Q 1688 409 2113 409 
Q 2538 409 2786 701 
Q 3034 994 3034 1497 
Q 3034 2003 2786 2293 
Q 2538 2584 2113 2584 
z
M 3366 4563 
L 3366 3988 
Q 3128 4100 2886 4159 
Q 2644 4219 2406 4219 
Q 1781 4219 1451 3797 
Q 1122 3375 1075 2522 
Q 1259 2794 1537 2939 
Q 1816 3084 2150 3084 
Q 2853 3084 3261 2657 
Q 3669 2231 3669 1497 
Q 3669 778 3244 343 
Q 2819 -91 2113 -91 
Q 1303 -91 875 529 
Q 447 1150 447 2328 
Q 447 3434 972 4092 
Q 1497 4750 2381 4750 
Q 2619 4750 2861 4703 
Q 3103 4656 3366 4563 
z
" transform="scale(0.015625)"/>
     </defs>
     <use xlink:href="#DejaVuSans-32"/>
     <use xlink:href="#DejaVuSans-36" x="63.623047"/>
    </g>
   </g>
   <g id="text_5">
    <!-- 9 -->
    <g transform="translate(32.315125 123.615162) scale(0.07 -0.07)">
     <defs>
      <path id="DejaVuSans-39" d="M 703 97 
L 703 672 
Q 941 559 1184 500 
Q 1428 441 1663 441 
Q 2288 441 2617 861 
Q 2947 1281 2994 2138 
Q 2813 1869 2534 1725 
Q 2256 1581 1919 1581 
Q 1219 1581 811 2004 
Q 403 2428 403 3163 
Q 403 3881 828 4315 
Q 1253 4750 1959 4750 
Q 2769 4750 3195 4129 
Q 3622 3509 3622 2328 
Q 3622 1225 3098 567 
Q 2575 -91 1691 -91 
Q 1453 -91 1209 -44 
Q 966 3 703 97 
z
M 1959 2075 
Q 2384 2075 2632 2365 
Q 2881 2656 2881 3163 
Q 2881 3666 2632 3958 
Q 2384 4250 1959 4250 
Q 1534 4250 1286 3958 
Q 1038 3666 1038 3163 
Q 1038 2656 1286 2365 
Q 1534 2075 1959 2075 
z
" transform="scale(0.015625)"/>
     </defs>
     <use xlink:href="#DejaVuSans-39"/>
    </g>
   </g>
   <g id="text_6">
    <!-- 3 -->
    <g transform="translate(71.375125 67.343562) scale(0.07 -0.07)">
     <defs>
      <path id="DejaVuSans-33" d="M 2597 2516 
Q 3050 2419 3304 2112 
Q 3559 1806 3559 1356 
Q 3559 666 3084 287 
Q 2609 -91 1734 -91 
Q 1441 -91 1130 -33 
Q 819 25 488 141 
L 488 750 
Q 750 597 1062 519 
Q 1375 441 1716 441 
Q 2309 441 2620 675 
Q 2931 909 2931 1356 
Q 2931 1769 2642 2001 
Q 2353 2234 1838 2234 
L 1294 2234 
L 1294 2753 
L 1863 2753 
Q 2328 2753 2575 2939 
Q 2822 3125 2822 3475 
Q 2822 3834 2567 4026 
Q 2313 4219 1838 4219 
Q 1578 4219 1281 4162 
Q 984 4106 628 3988 
L 628 4550 
Q 988 4650 1302 4700 
Q 1616 4750 1894 4750 
Q 2613 4750 3031 4423 
Q 3450 4097 3450 3541 
Q 3450 3153 3228 2886 
Q 3006 2619 2597 2516 
z
" transform="scale(0.015625)"/>
     </defs>
     <use xlink:href="#DejaVuSans-33"/>
    </g>
   </g>
   <g id="text_7">
    <!-- 3 -->
    <g transform="translate(133.871125 67.343562) scale(0.07 -0.07)">
     <use xlink:href="#DejaVuSans-33"/>
    </g>
   </g>
   <g id="text_8">
    <!-- 10 -->
    <g transform="translate(170.70425 123.615162) scale(0.07 -0.07)">
     <use xlink:href="#DejaVuSans-31"/>
     <use xlink:href="#DejaVuSans-30" x="63.623047"/>
    </g>
   </g>
   <g id="text_9">
    <!-- 8 -->
    <g transform="translate(55.751125 88.687962) scale(0.07 -0.07)">
     <defs>
      <path id="DejaVuSans-38" d="M 2034 2216 
Q 1584 2216 1326 1975 
Q 1069 1734 1069 1313 
Q 1069 891 1326 650 
Q 1584 409 2034 409 
Q 2484 409 2743 651 
Q 3003 894 3003 1313 
Q 3003 1734 2745 1975 
Q 2488 2216 2034 2216 
z
M 1403 2484 
Q 997 2584 770 2862 
Q 544 3141 544 3541 
Q 544 4100 942 4425 
Q 1341 4750 2034 4750 
Q 2731 4750 3128 4425 
Q 3525 4100 3525 3541 
Q 3525 3141 3298 2862 
Q 3072 2584 2669 2484 
Q 3125 2378 3379 2068 
Q 3634 1759 3634 1313 
Q 3634 634 3220 271 
Q 2806 -91 2034 -91 
Q 1263 -91 848 271 
Q 434 634 434 1313 
Q 434 1759 690 2068 
Q 947 2378 1403 2484 
z
M 1172 3481 
Q 1172 3119 1398 2916 
Q 1625 2713 2034 2713 
Q 2441 2713 2670 2916 
Q 2900 3119 2900 3481 
Q 2900 3844 2670 4047 
Q 2441 4250 2034 4250 
Q 1625 4250 1398 4047 
Q 1172 3844 1172 3481 
z
" transform="scale(0.015625)"/>
     </defs>
     <use xlink:href="#DejaVuSans-38"/>
    </g>
   </g>
   <g id="text_10">
    <!-- 0 -->
    <g transform="translate(59.657125 152.721162) scale(0.07 -0.07)">
     <use xlink:href="#DejaVuSans-30"/>
    </g>
   </g>
   <g id="text_11">
    <!-- 2 -->
    <g transform="translate(102.623125 181.827162) scale(0.07 -0.07)">
     <use xlink:href="#DejaVuSans-32"/>
    </g>
   </g>
   <g id="text_12">
    <!-- 0 -->
    <g transform="translate(102.623125 86.747562) scale(0.07 -0.07)">
     <use xlink:href="#DejaVuSans-30"/>
    </g>
   </g>
   <g id="text_13">
    <!-- 0 -->
    <g transform="translate(145.589125 152.721162) scale(0.07 -0.07)">
     <use xlink:href="#DejaVuSans-30"/>
    </g>
   </g>
   <g id="text_14">
    <!-- 13 -->
    <g transform="translate(147.26825 88.687962) scale(0.07 -0.07)">
     <use xlink:href="#DejaVuSans-31"/>
     <use xlink:href="#DejaVuSans-33" x="63.623047"/>
    </g>
   </g>
   <g id="text_15">
    <!-- 0 -->
    <g transform="translate(77.234125 104.211162) scale(0.07 -0.07)">
     <use xlink:href="#DejaVuSans-30"/>
    </g>
   </g>
   <g id="text_16">
    <!-- 0 -->
    <g transform="translate(122.153125 170.184762) scale(0.07 -0.07)">
     <use xlink:href="#DejaVuSans-30"/>
    </g>
   </g>
   <g id="text_17">
    <!-- 0 -->
    <g transform="translate(83.093125 170.184762) scale(0.07 -0.07)">
     <use xlink:href="#DejaVuSans-30"/>
    </g>
   </g>
   <g id="text_18">
    <!-- 0 -->
    <g transform="translate(128.012125 104.211162) scale(0.07 -0.07)">
     <use xlink:href="#DejaVuSans-30"/>
    </g>
   </g>
   <g id="text_19">
    <!-- 1 -->
    <g transform="translate(102.623125 135.257562) scale(0.07 -0.07)">
     <use xlink:href="#DejaVuSans-31"/>
    </g>
   </g>
   <g id="legend_1">
    <g id="patch_10">
     <path d="M 43.290305 21.921197 
L 54.840305 21.921197 
L 54.840305 16.531197 
L 43.290305 16.531197 
z
" style="fill: #0000ff; opacity: 0.3; stroke: #0000ff; stroke-linejoin: miter"/>
    </g>
    <g id="text_20">
     <!-- IIT_CS -->
     <g transform="translate(58.690305 21.921197) scale(0.077 -0.077)">
      <defs>
       <path id="DejaVuSans-49" d="M 628 4666 
L 1259 4666 
L 1259 0 
L 628 0 
L 628 4666 
z
" transform="scale(0.015625)"/>
       <path id="DejaVuSans-54" d="M -19 4666 
L 3928 4666 
L 3928 4134 
L 2272 4134 
L 2272 0 
L 1638 0 
L 1638 4134 
L -19 4134 
L -19 4666 
z
" transform="scale(0.015625)"/>
       <path id="DejaVuSans-5f" d="M 3263 -1063 
L 3263 -1509 
L -63 -1509 
L -63 -1063 
L 3263 -1063 
z
" transform="scale(0.015625)"/>
       <path id="DejaVuSans-43" d="M 4122 4306 
L 4122 3641 
Q 3803 3938 3442 4084 
Q 3081 4231 2675 4231 
Q 1875 4231 1450 3742 
Q 1025 3253 1025 2328 
Q 1025 1406 1450 917 
Q 1875 428 2675 428 
Q 3081 428 3442 575 
Q 3803 722 4122 1019 
L 4122 359 
Q 3791 134 3420 21 
Q 3050 -91 2638 -91 
Q 1578 -91 968 557 
Q 359 1206 359 2328 
Q 359 3453 968 4101 
Q 1578 4750 2638 4750 
Q 3056 4750 3426 4639 
Q 3797 4528 4122 4306 
z
" transform="scale(0.015625)"/>
       <path id="DejaVuSans-53" d="M 3425 4513 
L 3425 3897 
Q 3066 4069 2747 4153 
Q 2428 4238 2131 4238 
Q 1616 4238 1336 4038 
Q 1056 3838 1056 3469 
Q 1056 3159 1242 3001 
Q 1428 2844 1947 2747 
L 2328 2669 
Q 3034 2534 3370 2195 
Q 3706 1856 3706 1288 
Q 3706 609 3251 259 
Q 2797 -91 1919 -91 
Q 1588 -91 1214 -16 
Q 841 59 441 206 
L 441 856 
Q 825 641 1194 531 
Q 1563 422 1919 422 
Q 2459 422 2753 634 
Q 3047 847 3047 1241 
Q 3047 1584 2836 1778 
Q 2625 1972 2144 2069 
L 1759 2144 
Q 1053 2284 737 2584 
Q 422 2884 422 3419 
Q 422 4038 858 4394 
Q 1294 4750 2059 4750 
Q 2388 4750 2728 4690 
Q 3069 4631 3425 4513 
z
" transform="scale(0.015625)"/>
      </defs>
      <use xlink:href="#DejaVuSans-49"/>
      <use xlink:href="#DejaVuSans-49" x="29.492188"/>
      <use xlink:href="#DejaVuSans-54" x="58.984375"/>
      <use xlink:href="#DejaVuSans-5f" x="120.068359"/>
      <use xlink:href="#DejaVuSans-43" x="170.068359"/>
      <use xlink:href="#DejaVuSans-53" x="239.892578"/>
     </g>
    </g>
    <g id="patch_11">
     <path d="M 43.290305 33.437509 
L 54.840305 33.437509 
L 54.840305 28.047509 
L 43.290305 28.047509 
z
" style="fill: #008000; opacity: 0.3; stroke: #008000; stroke-linejoin: miter"/>
    </g>
    <g id="text_21">
     <!-- CS_IIT -->
     <g transform="translate(58.690305 33.437509) scale(0.077 -0.077)">
      <use xlink:href="#DejaVuSans-43"/>
      <use xlink:href="#DejaVuSans-53" x="69.824219"/>
      <use xlink:href="#DejaVuSans-5f" x="133.300781"/>
      <use xlink:href="#DejaVuSans-49" x="183.300781"/>
      <use xlink:href="#DejaVuSans-49" x="212.792969"/>
      <use xlink:href="#DejaVuSans-54" x="242.285156"/>
     </g>
    </g>
    <g id="patch_12">
     <path d="M 112.851383 21.921197 
L 124.401383 21.921197 
L 124.401383 16.531197 
L 112.851383 16.531197 
z
" style="fill: #ff0000; opacity: 0.3; stroke: #ff0000; stroke-linejoin: miter"/>
    </g>
    <g id="text_22">
     <!-- CS_GNWT -->
     <g transform="translate(128.251383 21.921197) scale(0.077 -0.077)">
      <defs>
       <path id="DejaVuSans-47" d="M 3809 666 
L 3809 1919 
L 2778 1919 
L 2778 2438 
L 4434 2438 
L 4434 434 
Q 4069 175 3628 42 
Q 3188 -91 2688 -91 
Q 1594 -91 976 548 
Q 359 1188 359 2328 
Q 359 3472 976 4111 
Q 1594 4750 2688 4750 
Q 3144 4750 3555 4637 
Q 3966 4525 4313 4306 
L 4313 3634 
Q 3963 3931 3569 4081 
Q 3175 4231 2741 4231 
Q 1884 4231 1454 3753 
Q 1025 3275 1025 2328 
Q 1025 1384 1454 906 
Q 1884 428 2741 428 
Q 3075 428 3337 486 
Q 3600 544 3809 666 
z
" transform="scale(0.015625)"/>
       <path id="DejaVuSans-4e" d="M 628 4666 
L 1478 4666 
L 3547 763 
L 3547 4666 
L 4159 4666 
L 4159 0 
L 3309 0 
L 1241 3903 
L 1241 0 
L 628 0 
L 628 4666 
z
" transform="scale(0.015625)"/>
       <path id="DejaVuSans-57" d="M 213 4666 
L 850 4666 
L 1831 722 
L 2809 4666 
L 3519 4666 
L 4500 722 
L 5478 4666 
L 6119 4666 
L 4947 0 
L 4153 0 
L 3169 4050 
L 2175 0 
L 1381 0 
L 213 4666 
z
" transform="scale(0.015625)"/>
      </defs>
      <use xlink:href="#DejaVuSans-43"/>
      <use xlink:href="#DejaVuSans-53" x="69.824219"/>
      <use xlink:href="#DejaVuSans-5f" x="133.300781"/>
      <use xlink:href="#DejaVuSans-47" x="183.300781"/>
      <use xlink:href="#DejaVuSans-4e" x="260.791016"/>
      <use xlink:href="#DejaVuSans-57" x="335.595703"/>
      <use xlink:href="#DejaVuSans-54" x="434.472656"/>
     </g>
    </g>
    <g id="patch_13">
     <path d="M 112.851383 33.437509 
L 124.401383 33.437509 
L 124.401383 28.047509 
L 112.851383 28.047509 
z
" style="fill: #00bfbf; opacity: 0.3; stroke: #00bfbf; stroke-linejoin: miter"/>
    </g>
    <g id="text_23">
     <!-- GNWT_CS -->
     <g transform="translate(128.251383 33.437509) scale(0.077 -0.077)">
      <use xlink:href="#DejaVuSans-47"/>
      <use xlink:href="#DejaVuSans-4e" x="77.490234"/>
      <use xlink:href="#DejaVuSans-57" x="152.294922"/>
      <use xlink:href="#DejaVuSans-54" x="251.171875"/>
      <use xlink:href="#DejaVuSans-5f" x="312.255859"/>
      <use xlink:href="#DejaVuSans-43" x="362.255859"/>
      <use xlink:href="#DejaVuSans-53" x="432.080078"/>
     </g>
    </g>
   </g>
  </g>
 </g>
 <defs>
  <clipPath id="p8dcabcca2d">
   <rect x="7.2" y="7.2" width="195.3" height="194.04"/>
  </clipPath>
 </defs>
</svg>
